Coordinates
version=1
nRows=6
nColumns=46
inDegrees=yes

Units are S.I. units (second, meters, Newtons, ...)
Angles are in degrees.

endheader
time	pelvis_tilt	pelvis_list	pelvis_rotation	pelvis_tx	pelvis_ty	pelvis_tz	bb_angle	bb_tx	bb_ty	bb_tz	hip_flexion_r	hip_adduction_r	hip_rotation_r	knee_angle_r	knee_angle_r_beta	ankle_angle_r	subtalar_angle_r	mtp_angle_r	crank_angle_r	hip_flexion_l	hip_adduction_l	hip_rotation_l	knee_angle_l	knee_angle_l_beta	ankle_angle_l	subtalar_angle_l	mtp_angle_l	crank_angle_l	lumbar_extension	lumbar_bending	lumbar_rotation	arm_flex_r	arm_add_r	arm_rot_r	elbow_flex_r	pro_sup_r	wrist_flex_r	wrist_dev_r	arm_flex_l	arm_add_l	arm_rot_l	elbow_flex_l	pro_sup_l	wrist_flex_l	wrist_dev_l
      0.00500000	    -22.26855344	     -5.45110845	     -6.28453706	      0.13456809	      1.12638478	     -0.22060369	      0.00000000	      0.50000000	      0.00000000	      0.25000000	     90.79745768	      3.60381498	     -0.21140409	     95.38561711	      1.66479308	     17.47388642	     -7.43693128	      0.00000000	      0.00000000	     38.92777546	    -12.99499716	     -3.54909505	     26.36441875	      0.46014591	     -1.33044873	      2.85707542	      0.00000000	      0.00000000	    -44.95388067	      2.74834261	     11.09855113	     89.52848970	     -7.65094237	     45.65313340	     27.44232158	     28.68655399	      0.00000000	      0.00000000	     89.50539442	     -3.51069242	     19.91168357	     28.44221000	     34.79877648	      0.00000000	      0.00000000
      0.01000000	    -22.23330922	     -5.48088779	     -6.29232675	      0.13460519	      1.12644017	     -0.22062526	      0.00000000	      0.50000000	      0.00000000	      0.25000000	     90.75437221	      3.61004194	     -0.23651177	     95.38856931	      1.66484460	     17.50033452	     -7.40012243	      0.00000000	      0.00000000	     38.88323886	    -13.02422256	     -3.54064350	     26.35489493	      0.45997969	     -1.33655676	      2.85363816	      0.00000000	      0.00000000	    -45.01465321	      2.81135888	     11.05644138	     89.51110637	     -6.96954156	     43.70122530	     27.00459270	     29.32678377	      0.00000000	      0.00000000	     89.50728071	     -3.33352474	     18.71262843	     28.53414475	     34.35757406	      0.00000000	      0.00000000
      0.01500000	    -22.28057466	     -5.45357660	     -6.32401923	      0.13462775	      1.12632016	     -0.22056897	      0.00000000	      0.50000000	      0.00000000	      0.25000000	     90.82233251	      3.63922539	     -0.20995558	     95.40496989	      1.66513085	     17.43601036	     -7.40412479	      0.00000000	      0.00000000	     38.92112389	    -13.01645005	     -3.56582214	     26.34788284	      0.45985731	     -1.31571993	      2.84407214	      0.00000000	      0.00000000	    -44.94385515	      2.73824749	     11.11227773	     89.53069898	     -7.66043424	     45.65830815	     27.29413147	     29.70776318	      0.00000000	      0.00000000	     89.50377486	     -3.51341681	     19.77745659	     28.56790048	     34.84563064	      0.00000000	      0.00000000
      0.02000000	    -22.00372129	     -5.34116113	     -5.98615608	      0.13437184	      1.12713611	     -0.22192805	      0.00000000	      0.50000000	      0.00000000	      0.25000000	     90.35831239	      3.17615061	     -0.04218762	     95.36425951	      1.66442032	     18.04763985	     -7.00144824	      0.00000000	      0.00000000	     38.45302719	    -12.33985940	     -2.36532806	     25.89296476	      0.45191749	     -1.58101795	      0.51196699	      0.00000000	      0.00000000	    -45.29635509	      2.98311317	     10.73836011	     89.54877675	     -7.50082285	     45.19408964	     27.25072463	     30.92249812	      0.00000000	      0.00000000	     89.49402459	     -4.33806856	     21.49541333	     28.70511580	     36.05444008	      0.00000000	      0.00000000
      0.02500000	    -22.22953780	     -5.44886144	     -6.31780332	      0.13398458	      1.12685073	     -0.22023083	      0.00000000	      0.50000000	      0.00000000	      0.25000000	     90.60999889	      3.82774370	     -0.05996801	     95.28013057	      1.66295199	     17.82746843	     -7.46321746	      0.00000000	      0.00000000	     38.72197657	    -12.89236484	     -2.68546760	     25.99560875	      0.45370896	     -1.63778223	      2.33053795	      0.00000000	      0.00000000	    -45.21184135	      2.84219241	     11.12520228	     89.53048836	     -7.48573826	     44.18051226	     27.65805014	     31.52685700	      0.00000000	      0.00000000	     89.48632046	     -4.24432700	     20.58045544	     29.25585677	     36.41442270	      0.00000000	      0.00000000
      0.03000000	    -22.44845343	     -6.00910189	     -6.13943229	      0.13354556	      1.12649569	     -0.21996229	      0.00000000	      0.50000000	      0.00000000	      0.25000000	     90.74879005	      3.68296909	     -0.77565718	     95.17185667	      1.66106225	     17.80663017	     -7.58128644	      0.00000000	      0.00000000	     39.02010577	    -13.02571926	     -0.96511927	     25.92103671	      0.45240744	     -1.77616664	      0.95936912	      0.00000000	      0.00000000	    -44.95012059	      3.39086670	     11.34476537	     89.53908793	     -7.36571929	     44.30396295	     27.09016858	     31.77322664	      0.00000000	      0.00000000	     89.51546543	     -3.88719621	     20.05634558	     28.40079807	     36.45135766	      0.00000000	      0.00000000
